<svg xmlns="http://www.w3.org/2000/svg" viewBox="0 0 200 200">
  <circle fill="#E60000" cx="100" cy="100" r="100"/>
  <path fill="#fff" d="M122.2,30.5c-29.7,0-53.8,24.1-53.8,53.8c0,23.8,19.3,43.1,43.1,43.1
    c21.5,0,39.1-17.6,39.1-39.1c0-18.3-14.8-33.1-33.1-33.1c-15.8,0-28.6,12.8-28.6,28.6
    c0,13.3,10.8,24.1,24.1,24.1c11.5,0,20.8-9.3,20.8-20.8c0-9.7-7.9-17.6-17.6-17.6
    c-8.5,0-15.4,6.9-15.4,15.4c0,6.8,5.5,12.3,12.3,12.3c5.9,0,10.8-4.8,10.8-10.8
    c0-5.1-4.2-9.3-9.3-9.3c-4.5,0-8.1,3.6-8.1,8.1c0,3.6,2.9,6.5,6.5,6.5c2.8,0,5.1-2.3,5.1-5.1"/>
</svg>